<svg id="Layer_1" data-name="Layer 1" xmlns="http://www.w3.org/2000/svg" viewBox="0 0 276 55.928"><defs><style>.cls-1{fill:#212428;}.cls-2{fill:#70b34b;}</style></defs><title>lianacloud_logo</title><path class="cls-1" d="M0,39.525V5.423H5.368v33.2a5.173,5.173,0,0,0,1.4,3.829,4.949,4.949,0,0,0,3.659,1.4v4.8Q0,48.651,0,39.525Z"/><path class="cls-1" d="M19.241,48.086V22.347H15.088V17.826h9.521v30.26Zm2.938-41.7a3.214,3.214,0,0,1,2.359.974,3.181,3.181,0,0,1,.975,2.331,3.32,3.32,0,1,1-6.639,0,3.278,3.278,0,0,1,3.305-3.3Z"/><path class="cls-1" d="M50.235,44.611q-3.221,4.041-9.86,4.04A8.486,8.486,0,0,1,34.2,46.066a8.677,8.677,0,0,1-2.613-6.428,9.6,9.6,0,0,1,4.026-7.784,16.068,16.068,0,0,1,10.27-3.178,12.034,12.034,0,0,1,3.843.735q0-7.347-6.555-7.346-5.029,0-7.742,2.712l-2.26-4.492a13.265,13.265,0,0,1,4.224-2.134,16.466,16.466,0,0,1,5.156-.89q6.584,0,9.564,3T55.1,29.778V40.627q0,3.984,2.373,5.312v2.684a10.117,10.117,0,0,1-4.9-.932A5.261,5.261,0,0,1,50.235,44.611Zm-.508-11.386a19.4,19.4,0,0,0-3.56-.565,10.192,10.192,0,0,0-6.64,2.09A6.216,6.216,0,0,0,36.956,39.7q0,4.718,5.566,4.718,4.068,0,7.2-3.87Z"/><path class="cls-1" d="M82.162,48.086v-17.6q0-4.831-1.455-6.767t-4.874-1.935a7.985,7.985,0,0,0-3.842,1.1,8.544,8.544,0,0,0-3.08,2.712v22.49H63.543V17.826h3.673l1.7,3.9q2.656-4.464,8.674-4.464,9.945,0,9.945,12.093V48.086Z"/><path class="cls-1" d="M112.252,44.611q-3.22,4.041-9.86,4.04a8.488,8.488,0,0,1-6.174-2.585,8.677,8.677,0,0,1-2.613-6.428,9.6,9.6,0,0,1,4.026-7.784,16.07,16.07,0,0,1,10.27-3.178,12.034,12.034,0,0,1,3.843.735q0-7.347-6.555-7.346-5.029,0-7.742,2.712l-2.26-4.492a13.265,13.265,0,0,1,4.224-2.134,16.466,16.466,0,0,1,5.156-.89q6.584,0,9.564,3t2.981,9.522V40.627q0,3.984,2.374,5.312v2.684a10.119,10.119,0,0,1-4.9-.932A5.261,5.261,0,0,1,112.252,44.611Zm-.508-11.386a19.388,19.388,0,0,0-3.56-.565,10.194,10.194,0,0,0-6.64,2.09A6.216,6.216,0,0,0,98.973,39.7q0,4.718,5.566,4.718,4.069,0,7.2-3.87Z"/><path class="cls-2" d="M160.423,20.271l-2.653,3.783a7.939,7.939,0,0,0-2.894-1.552,12.163,12.163,0,0,0-4.079-.734,8.592,8.592,0,0,0-6.944,3.062q-2.57,3.063-2.569,8.4,0,5.307,2.625,8.087a9.532,9.532,0,0,0,7.283,2.781,12.025,12.025,0,0,0,7.283-2.8l2.118,4.517a19.3,19.3,0,0,1-10.7,2.794,13.652,13.652,0,0,1-10.219-4.149q-4.036-4.15-4.037-11.235,0-7.227,4.192-11.6t11.475-4.375a15.034,15.034,0,0,1,5.081.988A14.444,14.444,0,0,1,160.423,20.271Z"/><path class="cls-2" d="M168.108,39.495V5.423h5.363V38.592a5.165,5.165,0,0,0,1.4,3.825,4.94,4.94,0,0,0,3.655,1.4v4.8Q168.108,48.613,168.108,39.495Z"/><path class="cls-2" d="M184.2,32.862q0-7,3.769-11.306a12.547,12.547,0,0,1,9.922-4.3q6.494,0,10.078,4.136t3.585,11.475q0,7.311-3.67,11.531a12.555,12.555,0,0,1-9.993,4.22q-6.465,0-10.078-4.262T184.2,32.862Zm5.646,0q0,11.376,8.045,11.376a6.792,6.792,0,0,0,5.886-3.049q2.131-3.048,2.131-8.327,0-11.235-8.017-11.236a6.9,6.9,0,0,0-5.857,2.993Q189.849,27.612,189.849,32.862Z"/><path class="cls-2" d="M223.73,17.816V37.1q0,7,6.069,7a8.342,8.342,0,0,0,4.856-1.525,7.309,7.309,0,0,0,2.907-3.528V17.816h5.364V48.049h-5.364V43.871a8.337,8.337,0,0,1-3.627,3.26,11.1,11.1,0,0,1-5.321,1.482q-4.97,0-7.608-2.851t-2.64-8.1V17.816Z"/><path class="cls-2" d="M270.85,48.021v-2.23q-2.794,2.795-8.129,2.794a11.607,11.607,0,0,1-9.2-4.065q-3.53-4.065-3.529-10.84a17.406,17.406,0,0,1,4.065-11.616,12.3,12.3,0,0,1,9.683-4.813q4.686,0,7.113,2.2V5.423h5.364v42.6Zm0-23.2a6.349,6.349,0,0,0-5.561-3.048,8.634,8.634,0,0,0-6.986,3.218,12.394,12.394,0,0,0-2.668,8.186q0,10.925,9.937,10.925a7.643,7.643,0,0,0,3.048-.8,4.427,4.427,0,0,0,2.23-1.708Z"/><path class="cls-1" d="M124.692,7.04a5.864,5.864,0,0,1,5.949,5.912,5.889,5.889,0,0,1-5.986,5.986,5.95,5.95,0,1,1,0-11.9Zm-.074,1.041a4.762,4.762,0,0,0-4.722,4.871,4.764,4.764,0,0,0,4.8,4.908,4.68,4.68,0,0,0,4.648-4.871,4.741,4.741,0,0,0-4.685-4.908Zm-1.041,8.143h-1.153V10.015a11.9,11.9,0,0,1,2.157-.186,2.892,2.892,0,0,1,1.933.483,1.607,1.607,0,0,1,.632,1.339,1.587,1.587,0,0,1-1.19,1.45v.074a1.918,1.918,0,0,1,1,1.524,4.326,4.326,0,0,0,.484,1.525h-1.19a4.828,4.828,0,0,1-.521-1.6c-.148-.706-.557-1-1.413-1h-.743Zm0-3.5h.781c.818,0,1.6-.26,1.6-.967,0-.6-.409-1.041-1.487-1.041a4.377,4.377,0,0,0-.892.074Z"/></svg>